solid Untitled-553691fb
facet normal 0.0 0.0 -1.0
  outer loop
    vertex 0.01750000000000001 0.0025000000000000005 0.0
    vertex 0.0 0.0 0.0
    vertex 0.0 0.0024999999999999996 0.0
  endloop
endfacet
facet normal 0.0 0.0 -1.0
  outer loop
    vertex 0.0 0.0 0.0
    vertex 0.01750000000000001 0.0025000000000000005 0.0
    vertex 0.019999999999999997 0.0 0.0
  endloop
endfacet
facet normal 0.0 0.0 -1.0
  outer loop
    vertex 0.019999999999999997 0.0 0.0
    vertex 0.01750000000000001 0.0025000000000000005 0.0
    vertex 0.017500000000000012 0.019999999999999993 0.0
  endloop
endfacet
facet normal 0.0 0.0 -1.0
  outer loop
    vertex 0.019999999999999997 0.0 0.0
    vertex 0.017500000000000012 0.019999999999999993 0.0
    vertex 0.02000000000000003 0.019999999999999993 0.0
  endloop
endfacet
facet normal -0.0 -0.0 1.0
  outer loop
    vertex 0.019999999999999997 0.0 0.004999999999999999
    vertex 0.0 0.0024999999999999996 0.004999999999999999
    vertex 0.0 0.0 0.004999999999999999
  endloop
endfacet
facet normal -0.0 -0.0 1.0
  outer loop
    vertex 0.0 0.0024999999999999996 0.004999999999999999
    vertex 0.019999999999999997 0.0 0.004999999999999999
    vertex 0.01750000000000001 0.0025000000000000005 0.004999999999999999
  endloop
endfacet
facet normal -0.0 -0.0 1.0
  outer loop
    vertex 0.01750000000000001 0.0025000000000000005 0.004999999999999999
    vertex 0.019999999999999997 0.0 0.004999999999999999
    vertex 0.017500000000000012 0.019999999999999993 0.004999999999999999
  endloop
endfacet
facet normal -0.0 -0.0 1.0
  outer loop
    vertex 0.017500000000000012 0.019999999999999993 0.004999999999999999
    vertex 0.019999999999999997 0.0 0.004999999999999999
    vertex 0.02000000000000003 0.019999999999999993 0.004999999999999999
  endloop
endfacet
facet normal -4.0285235464969944e-17 0.9999999999999999 0.0
  outer loop
    vertex 0.0 0.0024999999999999996 0.004999999999999999
    vertex 0.01750000000000001 0.0025000000000000005 0.0
    vertex 0.0 0.0024999999999999996 0.0
  endloop
endfacet
facet normal -4.0285235464969944e-17 0.9999999999999999 0.0
  outer loop
    vertex 0.01750000000000001 0.0025000000000000005 0.0
    vertex 0.0 0.0024999999999999996 0.004999999999999999
    vertex 0.01750000000000001 0.0025000000000000005 0.004999999999999999
  endloop
endfacet
facet normal -1.0 3.222818837197599e-16 0.0
  outer loop
    vertex 0.017500000000000012 0.019999999999999993 0.004999999999999999
    vertex 0.01750000000000001 0.0025000000000000005 0.0
    vertex 0.01750000000000001 0.0025000000000000005 0.004999999999999999
  endloop
endfacet
facet normal -1.0 3.222818837197599e-16 0.0
  outer loop
    vertex 0.01750000000000001 0.0025000000000000005 0.0
    vertex 0.017500000000000012 0.019999999999999993 0.004999999999999999
    vertex 0.017500000000000012 0.019999999999999993 0.0
  endloop
endfacet
facet normal -0.0 0.9999999999999999 0.0
  outer loop
    vertex 0.017500000000000012 0.019999999999999993 0.004999999999999999
    vertex 0.02000000000000003 0.019999999999999993 0.0
    vertex 0.017500000000000012 0.019999999999999993 0.0
  endloop
endfacet
facet normal -0.0 0.9999999999999999 0.0
  outer loop
    vertex 0.02000000000000003 0.019999999999999993 0.0
    vertex 0.017500000000000012 0.019999999999999993 0.004999999999999999
    vertex 0.02000000000000003 0.019999999999999993 0.004999999999999999
  endloop
endfacet
facet normal 1.0 -1.6919798895287392e-15 0.0
  outer loop
    vertex 0.02000000000000003 0.019999999999999993 0.0
    vertex 0.019999999999999997 0.0 0.004999999999999999
    vertex 0.019999999999999997 0.0 0.0
  endloop
endfacet
facet normal 1.0 -1.6919798895287392e-15 0.0
  outer loop
    vertex 0.019999999999999997 0.0 0.004999999999999999
    vertex 0.02000000000000003 0.019999999999999993 0.0
    vertex 0.02000000000000003 0.019999999999999993 0.004999999999999999
  endloop
endfacet
facet normal -0.0 -0.9999999999999999 -0.0
  outer loop
    vertex 0.019999999999999997 0.0 0.004999999999999999
    vertex 0.0 0.0 0.0
    vertex 0.019999999999999997 0.0 0.0
  endloop
endfacet
facet normal -0.0 -0.9999999999999999 -0.0
  outer loop
    vertex 0.0 0.0 0.0
    vertex 0.019999999999999997 0.0 0.004999999999999999
    vertex 0.0 0.0 0.004999999999999999
  endloop
endfacet
facet normal -0.9999999999999999 0.0 0.0
  outer loop
    vertex 0.0 0.0024999999999999996 0.004999999999999999
    vertex 0.0 0.0 0.0
    vertex 0.0 0.0 0.004999999999999999
  endloop
endfacet
facet normal -0.9999999999999999 0.0 0.0
  outer loop
    vertex 0.0 0.0 0.0
    vertex 0.0 0.0024999999999999996 0.004999999999999999
    vertex 0.0 0.0024999999999999996 0.0
  endloop
endfacet
endsolid Untitled-553691fb
